<svg xmlns="http://www.w3.org/2000/svg" viewBox="0 0 256 256" enable-background="new 0 0 256 256"><style type="text/css">.st0{fill:#000;}</style><path class="st0" d="M198.9 233.6c-5.6 0-10-4.7-10-9.7 0-.9 0-2.1.3-2.7l-51-29.5c-1.8 1.8-4.1 2.7-6.5 2.7-5.6 0-10-4.7-10-9.7 0-5.6 4.1-9.7 9.4-10l7.7-26.2c-2.7-1.8-4.4-4.7-4.7-8 0-2.4.9-4.4 2.1-5.9l-22.2-27.5c-1.2.3-2.4.6-3.5.6-5.6 0-10-4.7-10-9.7 0-2.7.9-5 2.4-6.8l-13.7-22.5c-.9.3-1.4.3-2 .3-5.6 0-10-4.7-10-9.7v-1.2l-49.3-19.7c-1.8 2.4-4.4 3.8-7.4 3.8-5.6 0-10-4.7-10-9.7 0-5.9 4.7-10 10-10s9.7 4.1 9.7 10l-.2.6 49.5 19.8c1.8-2.4 4.4-3.5 7.7-3.5 5.3 0 9.7 4.1 9.7 10 0 2.4-1.2 4.7-2.7 6.2l13.9 22.7c.9-.3 1.5-.3 2.4-.3 5.3 0 9.7 4.1 9.7 10-.3 1.8-.6 3.8-1.8 5.3l22.4 27.7c1.2-.3 2.1-.6 3.5-.6 5.3 0 9.7 4.1 9.7 10l-.3 1.2 74.3 35.4c2.1-2.1 4.7-3.2 7.7-3.2 5.3 0 9.7 4.1 9.7 10 0 5-4.1 9.7-9.7 9.7-1.8 0-2.9-.3-4.4-.9l-23.9 26.2c.6 1.5 1.2 3.2 1.2 5 0 5-4.1 9.8-9.7 9.8zm-178.4-205.3c-2.4 0-4.1 1.8-4.1 4.1 0 2.1 2.1 3.8 4.1 3.8s3.8-1.8 3.8-3.8c.1-2.3-1.4-4.1-3.8-4.1zm62.5 31c0 2.1 2.1 3.8 4.1 3.8 2.1 0 3.8-1.8 3.8-3.8 0-2.4-1.5-4.1-3.8-4.1s-4.1 1.7-4.1 4.1zm27.5 42.5c2.1 0 3.8-1.8 3.8-3.8 0-2.4-1.5-4.1-3.8-4.1s-4.1 1.8-4.1 4.1c-.1 2 2 3.8 4.1 3.8zm24.1 84.6h.3c.3-.6.6-1.2.6-1.8 0-2.4-1.5-4.1-3.8-4.1-2.4 0-4.1 1.8-4.1 4.1 0 2.1 2.1 3.8 4.1 3.8 1.2 0 2.3-.5 2.9-2zm6.5 0l51.3 29.5c1.8-1.2 4.1-2.1 6.5-2.1 1.5 0 2.9.3 4.1 1.2l23.9-26.2c-.9-1.5-1.2-3.2-1.2-5v-1.5l-74.3-35.4c-1.8 2.1-4.1 3.2-6.8 3.2l-7.7 26.2c2.7 1.5 4.5 4.5 4.2 10.1zm7.1-46c0-2.4-1.5-4.1-3.8-4.1-.9 0-1.8.3-2.4.6v.3l-.6.3c-.9.6-1.2 1.8-1.2 2.9 0 2.1 2.1 3.8 2.7 3.5h.6v.3h.9c2 0 3.8-1.8 3.8-3.8zm54.5 83.4c0-1.2-.6-2.1-1.2-2.9l-.3-.3c-.6-.6-1.5-.9-2.4-.9-2.4 0-4.1 1.8-4.1 4.1 0 2.1 2.1 3.8 4.1 3.8 2.2.1 3.9-1.7 3.9-3.8zm36.9-40.1c0-2.4-1.5-4.1-3.8-4.1-2.4 0-4.1 1.8-4.1 4.1 0 2.1 2.1 3.8 4.1 3.8 2 .1 3.8-1.7 3.8-3.8z"/></svg>
