<svg xmlns="http://www.w3.org/2000/svg" viewBox="0 0 256 256" enable-background="new 0 0 256 256"><path d="M48 132.1h-33.4c-2 0-4.1-2.1-4.1-4.2 0-2 2.1-4.1 4.1-4.1h33.4c2 0 4.1 2 4.1 4.1.1 2.2-2 4.2-4.1 4.2zm20.6-57.7l-23.5-23.5c-1.6-1.6-1.6-4.1 0-5.8s4.1-1.6 5.8 0l23.5 23.5c1.6 1.7 1.6 4.1 0 5.8-1.6 1.7-4.1 1.7-5.8 0zm5.8 113l-23.5 23.5c-1.6 1.6-4.1 1.6-5.8 0-1.6-1.6-1.6-4.1 0-5.8l23.5-23.5c1.6-1.6 4.1-1.6 5.8 0 1.7 1.6 1.7 4.1 0 5.8zm53.6-.9c-33 0-59.4-26.4-59.4-58.5s26.4-59 59.4-59c31.7 0 58.5 26.4 58.5 58.9 0 32.7-26.8 58.6-58.5 58.6zm0-8.2c27.6 0 50.3-22.7 50.3-50.3 0-27.6-22.7-50.7-50.3-50.7-28 0-51.1 22.7-51.1 50.7 0 28 23.1 50.3 51.1 50.3zm-4.1-130.3v-33.3c0-2.1 2-4.2 4.1-4.2 2 0 4.1 2.1 4.1 4.2v33.3c0 2.1-2 4.1-4.1 4.1-2.1.1-4.1-2-4.1-4.1zm0 193.4v-33.4c0-2 2-4.1 4.1-4.1 2 0 4.1 2.1 4.1 4.1v33.4c0 2-2 4.1-4.1 4.1-2.1 0-4.1-2.1-4.1-4.1zm87-190.5l-23.5 23.5c-1.6 1.6-4.1 1.6-5.8 0-1.6-1.6-1.6-4.1 0-5.8l23.5-23.5c1.6-1.6 4.1-1.6 5.8 0 1.6 1.7 1.6 4.2 0 5.8zm-5.8 160l-23.5-23.5c-1.6-1.6-1.6-4.1 0-5.8 1.6-1.6 4.1-1.6 5.8 0l23.5 23.5c1.6 1.6 1.6 4.1 0 5.8-1.7 1.6-4.2 1.6-5.8 0zm36.3-78.8h-33.4c-2 0-4.1-2.1-4.1-4.2 0-2 2.1-4.1 4.1-4.1h33.4c2 0 4.1 2 4.1 4.1 0 2.2-2.1 4.2-4.1 4.2z"/></svg>